<?xml version="1.0" encoding="UTF-8"?>
<svg id="Layer_1" data-name="Layer 1" xmlns="http://www.w3.org/2000/svg" xmlns:xlink="http://www.w3.org/1999/xlink" viewBox="0 0 720.1202 252.0003">
  <g id="type">
    <path id="type_CompoundPathItem_" data-name="type &amp;lt;CompoundPathItem&amp;gt;" d="M355.1651,63.1763c-33.0417,0-53.5197,7.3052-53.5197,43.6733v37.3095c0,36.3712,20.4779,43.6764,53.5197,43.6764h61.8388c39.1443,0,44.5389-17.337,44.5389-36.0745v-10.1648h-35.2027c-.4297,15.6738-7.4752,17.2752-24.0177,17.2752h-40.9373c-20.0019,0-23.52-8.5881-23.52-26.63v-13.4742c0-15.9829,4.3528-26.6284,25.5913-26.6284h41.7999c9.1013,0,19.5474,1.4947,19.5474,13.1558v1.8719h35.1903c.0556-15.1544-1.4035-25.9808-8.2264-32.8701-7.8214-7.8987-22.7471-11.12-51.5195-11.12h-45.083Z" style="fill: #0d2344;"/>
    <path id="type_CompoundPathItem_-2" data-name="type &amp;lt;CompoundPathItem&amp;gt;" d="M495.9664,186.4506h35.1841V64.5582h-35.1841v121.8923Z" style="fill: #0d2344;"/>
    <path id="type_CompoundPathItem_-3" data-name="type &amp;lt;CompoundPathItem&amp;gt;" d="M565.5803,148.6789v7.0548c0,24.602,11.052,32.1019,47.3027,32.1019h46.4618c51.6864,0,60.7754-5.6265,60.7754-37.6295,0-14.4094-2.2661-22.8151-7.5741-28.1077-8.8942-8.871-26.9608-10.2807-64.2533-10.2112-30.5994,.1237-40.4953-.0371-44.8419-4.3636-2.2104-2.2011-2.5165-5.2787-2.5165-8.2743,0-7.1537,5.8676-11.2561,16.0942-11.2561h42.4893c17.3401,0,19.9864,3.9664,20.2214,12.9548h35.2027v-2.3897c0-20.7175-3.3573-35.382-46.7833-35.382h-53.5475c-45.5684,0-48.8577,14.5408-48.8577,38.4904,0,32.9644,11.0706,36.0714,62.6735,36.0714,49.1947,0,55.4797,.4885,55.4797,13.1573,0,12.1186-11.7074,12.1186-17.9955,12.1186h-46.9812c-10.7707,0-17.4761-.9924-18.1222-14.3352h-35.2274Z" style="fill: #0d2344;"/>
  </g>
  <g id="type_GroupItem_" data-name="type &amp;lt;GroupItem&amp;gt;">
    <a xlink:href="28.263137254902">
      <path id="logoMark_PathItem_" data-name="logoMark &amp;lt;PathItem&amp;gt;" d="M2.3647,149.7865c.0903-.0225,.1895-.0483,.2827-.0718,.6558-.1738,1.3779-.3652,2.2026-.585,8.9297-2.4956,25.7417-8.7461,38.1045-25.4014,.1621-.2222,.335-.4424,.4941-.665,.8589-1.1875,1.6953-2.4268,2.5044-3.7202,1.5835-2.4839,3.0444-4.9976,4.5107-7.5542,5.7393-10.0039,11.6729-20.3486,25.564-28.6216,14.98-8.9209,33.4419-11.8579,54.897-8.7827,.0732,.0107,.1299,.0747,.1299,.1489v18.5356c0,.0801-.0654,.147-.147,.147l-3.9766-.1787c-19.917,0-32.3589,12.9292-33.9082,30.0825-1.7642,19.5371,13.6382,36.0029,32.8149,36.0029h121.7549c3.084-11.3398,4.6289-23.3027,4.3813-35.6475C250.5795,53.9018,193.0488-1.3682,123.4755,.0258h-.0005C53.9018,1.4203-1.3687,58.9511,.0258,128.5243v.0005c.1455,7.271,.9126,14.3823,2.2344,21.2925,.0366-.0098,.0679-.0181,.105-.0278,0-.001,0-.002-.0005-.0029Z" style="fill: #fcb316;"/>
    </a>
    <a xlink:href="1.4210854715202e-14">
      <path id="logoMark_PathItem_-2" data-name="logoMark &amp;lt;PathItem&amp;gt;" d="M125.8378,159.123c-19.1768,0-34.5791-16.4658-32.8149-36.0029,1.5493-17.1533,13.9912-30.0825,33.9082-30.0825l3.9766,.1787c.0815,0,.147-.0669,.147-.147v-18.5356c0-.0742-.0566-.1382-.1299-.1489-21.4551-3.0752-39.917-.1382-54.897,8.7827-13.8911,8.2729-19.8247,18.6177-25.564,28.6216-1.4663,2.5566-2.9272,5.0703-4.5107,7.5542-.8091,1.2935-1.6455,2.5327-2.5044,3.7202-.1592,.2227-.332,.4429-.4941,.665-12.3628,16.6553-29.1748,22.9058-38.1045,25.4014-.8247,.2197-1.5469,.4111-2.2026,.585-.0933,.0234-.1924,.0493-.2827,.0718,.0005,.001,.0005,.002,.0005,.0029-.0371,.0098-.0684,.0181-.105,.0278,1.252,6.5464,3.0015,12.9121,5.2212,19.0503,.0659-.0229,.1333-.0454,.1987-.0679,.001,.0024,.0015,.0049,.0024,.0073,.6436-.2148,1.3936-.4731,2.2275-.77,.0137-.0044,.0308-.0103,.0439-.0151v-.0005c5.5942-1.9932,15.1177-5.8154,24.4307-11.5537,0,0,.0005,0,.0005-.001,11.4902-7.0796,20.1636-14.2183,32.5742-35.5151,3.5547-6.645,6.7925-12.6421,12.4673-17.5708,.1211-.1055,.3066,.0278,.2358,.1714-3.7563,7.6392-5.6733,16.3403-5.165,25.522,1.5215,27.4951,23.749,48.5176,52.832,48.5176h113.6479c2.6655-5.9302,4.8833-12.1006,6.6152-18.4688H125.8378Z" style="fill: #fff;"/>
    </a>
    <a xlink:href="1.4210854715202e-14">
      <path id="logoMark_PathItem_-3" data-name="logoMark &amp;lt;PathItem&amp;gt;" d="M115.0776,53.762c2.5665,0,5.1825,.0889,7.8357,.2598,.8827,.0564,1.7908,.1752,2.6816,.2495,1.7592,.1487,3.5109,.2777,5.2964,.4948,.0867,.0111,.1636-.0564,.1636-.1436v-18.1349c0-.0812-.0658-.147-.147-.147h-5.9033c-32.8742,0-61.648,17.8162-77.2239,44.2883,4.5656-4.8484,10.1917-9.5994,17.4451-13.918,14.4249-8.5919,31.1973-12.949,49.8517-12.949Z" style="fill: #fff;"/>
    </a>
    <a xlink:href="87.3788235294118">
      <path id="logoMark_PathItem_-4" data-name="logoMark &amp;lt;PathItem&amp;gt;" d="M49.2382,171.1571l15.8032-9.5527c13.0439,21.5762,35.8623,34.458,61.0435,34.458h104.6299c3.9116-5.8354,7.3569-12.0063,10.2627-18.4707H127.3295c-29.083,0-51.3105-21.0225-52.832-48.5176-.5083-9.1816,1.4087-17.8828,5.165-25.522,.0708-.1436-.1147-.2769-.2358-.1714-5.6748,4.9287-8.9126,10.9258-12.4673,17.5708-12.4106,21.2969-21.084,28.4355-32.5742,35.5151,0,.001-.0005,.001-.0005,.001-9.313,5.7383-18.8364,9.5605-24.4307,11.5537v.0005c-.0132,.0049-.0303,.0107-.0439,.0151-.834,.2969-1.584,.5552-2.2275,.77-.001-.0024-.0015-.0049-.0024-.0073-.0654,.0225-.1328,.0449-.1987,.0679,17.8545,49.3799,65.6284,84.2173,121.043,83.1069h.0005c34.1592-.6846,64.8564-14.9136,87.1045-37.4453H126.0849c-31.7017,0-60.4302-16.2124-76.8467-43.3721Z" style="fill: #0d2344;"/>
    </a>
    <a xlink:href="1.4210854715202e-14">
      <path id="logoMark_PathItem_-5" data-name="logoMark &amp;lt;PathItem&amp;gt;" d="M230.7148,196.0624H126.0849c-25.1812,0-47.9995-12.8818-61.0435-34.458l-15.8032,9.5527c16.4165,27.1597,45.145,43.3721,76.8467,43.3721h89.5444c5.5884-5.6597,10.644-11.8408,15.0854-18.4668Z" style="fill: #fff;"/>
    </a>
  </g>
</svg>